<svg xmlns="http://www.w3.org/2000/svg" xmlns:xlink="http://www.w3.org/1999/xlink" version="1.0" x="0px" y="0px" viewBox="0 0 32 40" enable-background="new 0 0 32 32" xml:space="preserve"><path d="M13.992,0.141c-0.035,3.484-1.348,6.66-3.484,9.09L5.355,4.078C7.711,1.973,10.695,0.559,13.992,0.141z M16,0  c0,4.094-1.551,7.816-4.078,10.645l4.145,4.148L26.719,4.145C23.879,1.574,20.129,0,16,0z M3.996,5.445  c-2.062,2.344-3.441,5.293-3.855,8.547c3.441-0.035,6.578-1.312,9-3.402L3.996,5.445z M0,16c0,4.129,1.578,7.879,4.145,10.715  l10.559-10.559l-4.148-4.152C7.734,14.484,4.051,16,0,16z M22.77,21.492l5.152,5.152c2.105-2.359,3.52-5.34,3.938-8.637  C28.375,18.039,25.199,19.355,22.77,21.492z M32,16c0-4.016-1.488-7.676-3.93-10.484L17.43,16.156l3.926,3.922  C24.184,17.551,27.906,16,32,16z M26.555,28.004l-5.145-5.145c-2.09,2.422-3.367,5.559-3.402,9  C21.262,31.445,24.211,30.066,26.555,28.004z M16.066,17.52L5.52,28.066C8.328,30.512,11.984,32,16,32  c0-4.051,1.516-7.734,3.996-10.555L16.066,17.52z"/><text x="0" y="47" fill="#000000" font-size="5px" font-weight="bold" font-family="'Helvetica Neue', Helvetica, Arial-Unicode, Arial, Sans-serif">Created by Zlatko Najdenovski</text><text x="0" y="52" fill="#000000" font-size="5px" font-weight="bold" font-family="'Helvetica Neue', Helvetica, Arial-Unicode, Arial, Sans-serif">from the Noun Project</text></svg>