<svg xmlns="http://www.w3.org/2000/svg" xmlns:xlink="http://www.w3.org/1999/xlink" version="1.1" x="0px" y="0px" viewBox="0 0 40 50" enable-background="new 0 0 40 40" xml:space="preserve"><g><path fill="#000000" d="M5.497,24.454c-0.018,0-0.036,0-0.054-0.001c-0.314-0.018-0.603-0.182-0.777-0.443l-4.741-7.09   c-0.308-0.459-0.184-1.08,0.275-1.387c0.458-0.308,1.079-0.186,1.387,0.275l4,5.981l4.623-5.514   c0.355-0.421,0.985-0.479,1.409-0.124c0.423,0.355,0.479,0.986,0.124,1.409l-5.479,6.535C6.073,24.324,5.792,24.454,5.497,24.454z"/><path fill="#000000" d="M39.245,24.775c-0.323,0-0.64-0.156-0.832-0.444l-3.998-5.981l-4.625,5.515   c-0.354,0.424-0.983,0.479-1.409,0.124c-0.423-0.355-0.479-0.986-0.124-1.409l5.482-6.536c0.203-0.241,0.494-0.369,0.821-0.355   c0.313,0.017,0.602,0.181,0.776,0.442l4.738,7.09c0.308,0.459,0.184,1.08-0.275,1.387C39.629,24.721,39.436,24.775,39.245,24.775z"/><path fill="#000000" d="M19.965,34.71c-4.029,0-7.925-1.575-10.878-4.496C8.694,29.825,8.69,29.192,9.079,28.8   c0.388-0.394,1.022-0.396,1.414-0.008c3.331,3.294,8.037,4.624,12.587,3.556c6.939-1.625,11.734-8.698,10.471-15.445   c-0.103-0.543,0.256-1.065,0.798-1.167c0.551-0.104,1.065,0.256,1.167,0.798c1.455,7.767-4.031,15.9-11.979,17.762   C22.349,34.573,21.15,34.71,19.965,34.71z"/><path fill="#000000" d="M5.5,24.364c-0.441,0-0.846-0.295-0.965-0.742c-1.086-4.065-0.473-8.325,1.726-11.993   c2.27-3.787,5.988-6.525,10.202-7.513c5.573-1.309,11.381,0.551,15.168,4.845c0.365,0.414,0.326,1.046-0.089,1.411   c-0.411,0.365-1.045,0.327-1.411-0.089c-3.299-3.739-8.36-5.356-13.211-4.22c-3.69,0.864-6.95,3.268-8.943,6.594   c-1.918,3.199-2.454,6.911-1.51,10.449c0.143,0.533-0.174,1.082-0.708,1.224C5.673,24.354,5.586,24.364,5.5,24.364z"/></g><text x="0" y="55" fill="#000000" font-size="5px" font-weight="bold" font-family="'Helvetica Neue', Helvetica, Arial-Unicode, Arial, Sans-serif">Created by Gabriella Cinque</text><text x="0" y="60" fill="#000000" font-size="5px" font-weight="bold" font-family="'Helvetica Neue', Helvetica, Arial-Unicode, Arial, Sans-serif">from the Noun Project</text></svg>